<svg viewBox="0 0 400 400" xmlns="http://www.w3.org/2000/svg"><defs><radialGradient id="b" cx="50%" cy="20%" r="80%"><stop offset="0%" stop-color="#0f0"/><stop offset="30%" stop-color="#0f0"/><stop offset="70%" stop-color="#0f0" stop-opacity=".5"/><stop offset="100%" stop-color="#0f0" stop-opacity="0"/></radialGradient><radialGradient id="a" cx="20%" cy="70%" r="80%"><stop offset="0%" stop-color="red"/><stop offset="30%" stop-color="red" stop-opacity=".8"/><stop offset="70%" stop-color="red" stop-opacity=".3"/><stop offset="100%" stop-color="red" stop-opacity="0"/></radialGradient><radialGradient id="c" cx="80%" cy="70%" r="80%"><stop offset="0%" stop-color="#00f"/><stop offset="30%" stop-color="#00f" stop-opacity=".8"/><stop offset="70%" stop-color="#00f" stop-opacity=".3"/><stop offset="100%" stop-color="#00f" stop-opacity="0"/></radialGradient><radialGradient id="d" cx="50%" cy="50%" r="40%"><stop offset="0%" stop-color="#fff" stop-opacity=".2"/><stop offset="100%" stop-color="#fff" stop-opacity="0"/></radialGradient></defs><rect width="400" height="400" rx="32" ry="32" fill="#161616"/><rect x="2" y="2" width="396" height="396" rx="30" ry="30" fill="none" stroke="rgba(255,255,255,0.1)"/><path d="m200 80 120 200H80z"/><path fill="url(#a)" d="m200 80 120 200H80z"/><path fill="url(#b)" d="m200 80 120 200H80z"/><path fill="url(#c)" d="m200 80 120 200H80z"/><path fill="url(#d)" d="m200 80 120 200H80z"/><path fill="none" d="m200 80 120 200H80z"/><path fill="url(#a)" opacity=".5" d="m200 80 120 200H80z"/><path fill="url(#b)" opacity=".5" d="m200 80 120 200H80z"/><path fill="url(#c)" opacity=".5" d="m200 80 120 200H80z"/><path fill="none" stroke="#fff" stroke-opacity=".1" d="m200 80 120 200H80z"/></svg>